<svg xmlns="http://www.w3.org/2000/svg" viewBox="0 0 64 64">
  <rect width="64" height="64" rx="16" fill="#16324f" />
  <path
    d="M32 11l14 6v13c0 9.8-5.6 18.9-14 23-8.4-4.1-14-13.2-14-23V17l14-6z"
    fill="#f5efe0"
  />
  <path
    d="M32 20c-4.9 0-8.8 3.9-8.8 8.8 0 2.2.8 4.2 2.2 5.8V43h13.2v-8.4c1.4-1.6 2.2-3.6 2.2-5.8 0-4.9-3.9-8.8-8.8-8.8z"
    fill="#d8793d"
  />
  <path
    d="M32 25.2a3.6 3.6 0 0 0-3.6 3.6c0 1.1.5 2.1 1.2 2.8l.6.5v4.7h3.6v-4.7l.6-.5c.8-.7 1.2-1.7 1.2-2.8a3.6 3.6 0 0 0-3.6-3.6z"
    fill="#16324f"
  />
</svg>
